<svg xmlns="http://www.w3.org/2000/svg" width="26" height="26" viewBox="0 0 26 26"><defs><style>.a{fill:#1f1f1f;}</style></defs><g transform="translate(1 1)"><g transform="translate(-1 -1)"><path class="a" d="M4.417,16.47V.083a1.083,1.083,0,0,0-2.167,0V16.47a4.333,4.333,0,1,0,2.167,0ZM3.333,22.833A2.167,2.167,0,1,1,5.5,20.667,2.166,2.166,0,0,1,3.333,22.833Z" transform="translate(1 1)"/><path class="a" d="M349,3.333a4.333,4.333,0,1,0-5.417,4.2V23.917a1.083,1.083,0,0,0,2.167,0V7.53A4.335,4.335,0,0,0,349,3.333ZM344.667,5.5a2.167,2.167,0,1,1,2.167-2.167A2.166,2.166,0,0,1,344.667,5.5Z" transform="translate(-323.001 1)"/><path class="a" d="M175.084,7.8V.083a1.083,1.083,0,1,0-2.167,0V7.8a4.335,4.335,0,0,0,0,8.394v7.72a1.083,1.083,0,1,0,2.167,0V16.2a4.335,4.335,0,0,0,0-8.394ZM174,14.167A2.167,2.167,0,1,1,176.167,12,2.166,2.166,0,0,1,174,14.167Z" transform="translate(-161 1)"/></g></g></svg>