<svg xmlns="http://www.w3.org/2000/svg" xmlns:xlink="http://www.w3.org/1999/xlink" width="12" height="12" viewBox="0 0 12 12"><defs><style>.a{fill:none;}.b{clip-path:url(#a);}.c{fill:#1f1f1f;}</style><clipPath id="a"><rect class="a" width="12" height="12"/></clipPath></defs><g class="b"><g transform="translate(0.546 0)"><path class="c" d="M11.495,14.13a.545.545,0,0,0-.545.545,1.635,1.635,0,0,1-1.636,1.636H4.951V14.675a.545.545,0,0,0-.886-.426L1.338,16.431a.545.545,0,0,0,0,.852l2.727,2.181a.545.545,0,0,0,.886-.426V17.4H9.313a2.726,2.726,0,0,0,2.727-2.727A.545.545,0,0,0,11.495,14.13ZM3.86,17.9,2.551,16.856,3.86,15.81Z" transform="translate(-1.133 -7.584)"/><path class="c" d="M1.678,5.4a.545.545,0,0,0,.545-.545A1.635,1.635,0,0,1,3.86,3.222H8.223V4.858a.545.545,0,0,0,.886.426L11.836,3.1a.545.545,0,0,0,0-.852L9.109.07A.545.545,0,0,0,8.223.5V2.132H3.86A2.726,2.726,0,0,0,1.133,4.858.545.545,0,0,0,1.678,5.4ZM9.313,1.63l1.308,1.047L9.313,3.724Z" transform="translate(-1.133 0.051)"/></g></g></svg>